<svg xmlns="http://www.w3.org/2000/svg" viewBox="0 0 64 64" role="img" aria-label="Coloring Library favicon">
  <defs>
    <linearGradient id="bg" x1="10" y1="8" x2="54" y2="56" gradientUnits="userSpaceOnUse">
      <stop offset="0" stop-color="#f7b76d" />
      <stop offset="0.55" stop-color="#e97a56" />
      <stop offset="1" stop-color="#c85b4a" />
    </linearGradient>
    <linearGradient id="bookShade" x1="17" y1="20" x2="46" y2="46" gradientUnits="userSpaceOnUse">
      <stop offset="0" stop-color="#fffdf9" />
      <stop offset="1" stop-color="#f2eadf" />
    </linearGradient>
    <linearGradient id="pencil" x1="38" y1="31" x2="53" y2="47" gradientUnits="userSpaceOnUse">
      <stop offset="0" stop-color="#2f8c8f" />
      <stop offset="1" stop-color="#215f68" />
    </linearGradient>
  </defs>

  <rect width="64" height="64" rx="18" fill="url(#bg)" />
  <circle cx="48" cy="15" r="8" fill="#fff4d7" opacity="0.72" />
  <path d="M15 23c0-3.3 2.7-6 6-6h10c3.2 0 5.8 2.6 5.8 5.8v22.6c-2.9-2.1-6.9-3.3-11.5-3.3H15z" fill="url(#bookShade)" />
  <path d="M49 23c0-3.3-2.7-6-6-6H33c-3.2 0-5.8 2.6-5.8 5.8v22.6c2.9-2.1 6.9-3.3 11.5-3.3H49z" fill="url(#bookShade)" />
  <path d="M32 18.5v28.2" stroke="#d4c2ae" stroke-width="1.8" stroke-linecap="round" />
  <path d="M20 25h9M20 30h9M20 35h6" stroke="#d7b88c" stroke-width="1.6" stroke-linecap="round" opacity="0.95" />
  <path d="M35 25h9M35 30h9M35 35h6" stroke="#d7b88c" stroke-width="1.6" stroke-linecap="round" opacity="0.95" />
  <path d="M42.8 34.4l8.4 8.4-3.9 3.9-8.4-8.4z" fill="url(#pencil)" />
  <path d="M50.8 42.4l2.2 2.2-3.3 3.3-2.2-2.2z" fill="#f6d6a4" />
  <path d="M47.5 45.7l1.2 1.2-2.3 2.3c-.4.4-1 .4-1.4 0s-.4-1 0-1.4z" fill="#2f2a24" opacity="0.85" />
  <path d="M15 42.2c4.6 0 8.5 1.1 11.7 3.2 3.2-2.1 7.1-3.2 11.8-3.2H49" fill="none" stroke="#f6ead9" stroke-width="2.2" stroke-linecap="round" />
</svg>
